<svg xmlns="http://www.w3.org/2000/svg" xmlns:xlink="http://www.w3.org/1999/xlink" width="38" height="38" viewBox="0 0 38 38">
  <defs>
    <clipPath id="clip-path">
      <rect id="Rectangle_15" data-name="Rectangle 15" width="38" height="38" transform="translate(57 391)" fill="#fff" stroke="#474141" stroke-width="2"/>
    </clipPath>
  </defs>
  <g id="Mask_Group_3" data-name="Mask Group 3" transform="translate(-57 -391)" opacity="0.69" clip-path="url(#clip-path)" style="isolation: isolate">
    <path id="_8541908_dice_six_icon" data-name="8541908_dice_six_icon" d="M32.571,3.429H5.429A5.428,5.428,0,0,0,0,8.857V36a5.428,5.428,0,0,0,5.429,5.429H32.571A5.428,5.428,0,0,0,38,36V8.857A5.428,5.428,0,0,0,32.571,3.429ZM10.857,33.286a2.714,2.714,0,1,1,2.714-2.714A2.715,2.715,0,0,1,10.857,33.286Zm0-8.143a2.714,2.714,0,1,1,2.714-2.714A2.715,2.715,0,0,1,10.857,25.143Zm0-8.143a2.714,2.714,0,1,1,2.714-2.714A2.715,2.715,0,0,1,10.857,17ZM27.143,33.286a2.714,2.714,0,1,1,2.714-2.714A2.715,2.715,0,0,1,27.143,33.286Zm0-8.143a2.714,2.714,0,1,1,2.714-2.714A2.715,2.715,0,0,1,27.143,25.143Zm0-8.143a2.714,2.714,0,1,1,2.714-2.714A2.715,2.715,0,0,1,27.143,17Z" transform="translate(57 387.571)" fill="#fff" stroke="#474141" stroke-width="2"/>
  </g>
</svg>
