<svg xmlns="http://www.w3.org/2000/svg" xmlns:xlink="http://www.w3.org/1999/xlink" width="24" height="24" viewBox="0 0 24 24">
  <defs>
    <clipPath id="clip-path">
      <rect id="Rectangle_2" data-name="Rectangle 2" width="24" height="24" transform="translate(1724 31)" fill="#707070"/>
    </clipPath>
  </defs>
  <g id="Mask_Group_2" data-name="Mask Group 2" transform="translate(-1724 -31)" clip-path="url(#clip-path)">
    <g id="_1" data-name="1" transform="translate(1720.257 28.134)">
      <path id="Path_1" data-name="Path 1" d="M17.546,26.866h-3.6a.9.9,0,0,1-.891-.8l-.267-2.513a9.12,9.12,0,0,1-1.09-.451L9.731,24.688a.9.9,0,0,1-1.194-.063L5.989,22.076a.9.9,0,0,1-.063-1.194l1.589-1.966a9.084,9.084,0,0,1-.452-1.09l-2.517-.269a.9.9,0,0,1-.8-.89v-3.6a.9.9,0,0,1,.8-.89l2.513-.267a9.084,9.084,0,0,1,.452-1.09L5.921,8.851a.9.9,0,0,1,.063-1.194L8.533,5.108a.9.9,0,0,1,1.194-.063l1.966,1.588a9.121,9.121,0,0,1,1.09-.451l.267-2.513a.9.9,0,0,1,.893-.8h3.6a.9.9,0,0,1,.891.8L18.7,6.18a9.129,9.129,0,0,1,1.09.451l1.965-1.588a.9.9,0,0,1,1.194.063L25.5,7.655a.9.9,0,0,1,.063,1.194l-1.589,1.966a9.182,9.182,0,0,1,.452,1.09l2.513.267a.9.9,0,0,1,.8.89v3.6a.9.9,0,0,1-.8.892l-2.513.267a9.182,9.182,0,0,1-.452,1.09l1.589,1.966a.9.9,0,0,1-.063,1.194l-2.549,2.55a.9.9,0,0,1-1.194.063L19.8,23.1a9.129,9.129,0,0,1-1.09.451l-.266,2.513a.9.9,0,0,1-.893.8Zm-2.8-1.791H16.74l.244-2.3a.9.9,0,0,1,.66-.771,7.343,7.343,0,0,0,1.8-.748.9.9,0,0,1,1.015.078l1.8,1.455,1.41-1.41-1.457-1.8a.9.9,0,0,1-.078-1.015,7.321,7.321,0,0,0,.746-1.8.9.9,0,0,1,.771-.66l2.3-.245V13.869l-2.3-.245a.9.9,0,0,1-.771-.66,7.321,7.321,0,0,0-.746-1.8.9.9,0,0,1,.078-1.015l1.455-1.8-1.41-1.41-1.8,1.455a.9.9,0,0,1-1.015.078,7.343,7.343,0,0,0-1.8-.746.9.9,0,0,1-.66-.771l-.242-2.3H14.746l-.244,2.3a.9.9,0,0,1-.661.771,7.331,7.331,0,0,0-1.8.748A.9.9,0,0,1,11.029,8.4L9.23,6.942,7.821,8.352l1.456,1.8a.9.9,0,0,1,.078,1.015,7.368,7.368,0,0,0-.746,1.8.9.9,0,0,1-.771.66l-2.3.245v1.993l2.3.245a.9.9,0,0,1,.771.66,7.368,7.368,0,0,0,.745,1.8.9.9,0,0,1-.078,1.015l-1.455,1.8,1.41,1.41,1.8-1.455a.9.9,0,0,1,1.015-.078,7.331,7.331,0,0,0,1.8.746.9.9,0,0,1,.661.771Zm12.1-8.407Z" fill="#707070"/>
      <path id="Path_2" data-name="Path 2" d="M15.744,20.32A5.454,5.454,0,1,1,21.2,14.865a5.454,5.454,0,0,1-5.455,5.455Zm0-9.118a3.663,3.663,0,1,0,3.664,3.663A3.663,3.663,0,0,0,15.744,11.2Z" fill="#707070"/>
    </g>
  </g>
</svg>
